<?xml version="1.0" encoding="UTF-8" standalone="no"?>
<!-- Created with Inkscape (http://www.inkscape.org/) -->

<svg
   xmlns:dc="http://purl.org/dc/elements/1.1/"
   xmlns:cc="http://creativecommons.org/ns#"
   xmlns:rdf="http://www.w3.org/1999/02/22-rdf-syntax-ns#"
   xmlns:svg="http://www.w3.org/2000/svg"
   xmlns="http://www.w3.org/2000/svg"
   xmlns:xlink="http://www.w3.org/1999/xlink"
   xmlns:sodipodi="http://sodipodi.sourceforge.net/DTD/sodipodi-0.dtd"
   xmlns:inkscape="http://www.inkscape.org/namespaces/inkscape"
   width="1262.79"
   height="255.11"
   id="svg3134"
   version="1.1"
   inkscape:version="0.48.2 r9819"
   sodipodi:docname="New document 4">
  <defs
     id="defs3136">
    <linearGradient
       y2="802.35999"
       x2="500.5"
       y1="802.35999"
       x1="-0.5"
       gradientTransform="matrix(0.05195151,0,0,0.05195151,-3234.7737,2132.4643)"
       gradientUnits="userSpaceOnUse"
       id="linearGradient3319"
       xlink:href="#linearGradient5410"
       inkscape:collect="always" />
    <linearGradient
       gradientTransform="matrix(0.05195151,0,0,0.05195151,-3234.7737,2132.4643)"
       y2="802.35999"
       x2="500.5"
       y1="802.35999"
       x1="-0.5"
       gradientUnits="userSpaceOnUse"
       id="linearGradient3251"
       xlink:href="#linearGradient5410"
       inkscape:collect="always" />
    <linearGradient
       id="linearGradient5410"
       y2="802.35999"
       gradientUnits="userSpaceOnUse"
       y1="802.35999"
       x2="500.5"
       x1="-0.5">
      <stop
         id="stop5406"
         offset="0" />
      <stop
         id="stop5408"
         stop-color="#0000b2"
         stop-opacity=".62264"
         offset="1" />
    </linearGradient>
    <linearGradient
       id="linearGradient3110">
      <stop
         style="stop-color:#2a64ff;stop-opacity:1;"
         offset="0"
         id="stop3124" />
      <stop
         style="stop-color:#55a600;stop-opacity:1;"
         offset="0.29512352"
         id="stop3122" />
      <stop
         style="stop-color:#ffff46;stop-opacity:1;"
         offset="0.51247638"
         id="stop3120" />
      <stop
         style="stop-color:#ff7807;stop-opacity:1;"
         offset="0.75336808"
         id="stop3118" />
      <stop
         id="stop3114"
         offset="1"
         style="stop-color:#ff0000;stop-opacity:1;" />
    </linearGradient>
  </defs>
  <sodipodi:namedview
     id="base"
     pagecolor="#ffffff"
     bordercolor="#666666"
     borderopacity="1.0"
     inkscape:pageopacity="0.0"
     inkscape:pageshadow="2"
     inkscape:zoom="0.24748737"
     inkscape:cx="770.9798"
     inkscape:cy="-449.74644"
     inkscape:document-units="px"
     inkscape:current-layer="layer1"
     showgrid="false"
     inkscape:window-width="1440"
     inkscape:window-height="802"
     inkscape:window-x="0"
     inkscape:window-y="0"
     inkscape:window-maximized="1" />
  <metadata
     id="metadata3139">
    <rdf:RDF>
      <cc:Work
         rdf:about="">
        <dc:format>image/svg+xml</dc:format>
        <dc:type
           rdf:resource="http://purl.org/dc/dcmitype/StillImage" />
        <dc:title></dc:title>
      </cc:Work>
    </rdf:RDF>
  </metadata>
  <g
     inkscape:label="Layer 1"
     inkscape:groupmode="layer"
     id="layer1"
     transform="translate(0,-797.25218)">
    <g
       style="font-size:260.17886353px;font-style:normal;font-variant:normal;font-weight:bold;font-stretch:normal;line-height:125%;letter-spacing:0px;word-spacing:0px;fill:#002255;fill-opacity:1;stroke:none;font-family:Arial Rounded MT Bold;-inkscape-font-specification:'Arial Rounded MT Bold, Bold'"
       id="text2985">
      <path
         d="m -0.0045916,799.53639 57.0411666,0 c 15.329459,1.7e-4 27.694718,4.48893 37.095815,13.46629 9.40087,8.89298 14.10137,20.62303 14.10149,35.19021 -1.2e-4,9.57049 -2.3292,18.67504 -6.98722,27.3137 -4.573575,8.55414 -11.518447,14.9485 -20.83464,19.18311 -9.316389,4.23474 -17.277583,6.43678 -23.883607,6.6061 l -20.834635,0.50816 0,64.53656 -35.6983696,0 0,-166.80413 m 35.1902076,29.98155 0,42.68559 13.974451,0 c 6.013175,10e-5 11.137135,-2.15959 15.371895,-6.47906 4.31929,-4.31927 6.478975,-9.44323 6.479064,-15.3719 -8.9e-5,-6.77536 -2.413855,-12.02636 -7.241306,-15.75301 -4.827614,-3.72639 -11.687792,-5.58965 -20.580555,-5.58978 l -8.003549,0.50816"
         style="letter-spacing:-11px;fill:#002255;font-family:Tw Cen MT;-inkscape-font-specification:Tw Cen MT Bold"
         id="path4058" />
      <path
         d="m 124.67462,799.53639 35.82541,0 0,166.80413 -35.82541,0 0,-166.80413"
         style="letter-spacing:-11px;fill:#002255;font-family:Tw Cen MT;-inkscape-font-specification:Tw Cen MT Bold"
         id="path4060" />
      <path
         d="m 183.80095,799.53639 35.95245,0 0,70.50746 0.50816,0 55.38964,-70.50746 43.956,0 -63.39319,79.65437 66.06104,87.14976 -43.19375,0 -58.81974,-78.00285 -0.50816,0 0,78.00285 -35.95245,0 0,-166.80413"
         style="letter-spacing:-11px;fill:#002255;font-family:Tw Cen MT;-inkscape-font-specification:Tw Cen MT Bold"
         id="path4062" />
      <path
         d="m 337.44538,799.53639 93.8829,0 0,33.03052 -57.93045,0 0,33.66572 57.93045,0 0,32.52236 -57.93045,0 0,34.55501 57.93045,0 0,33.03052 -93.8829,0 0,-166.80413"
         style="letter-spacing:-11px;fill:#002255;font-family:Tw Cen MT;-inkscape-font-specification:Tw Cen MT Bold"
         id="path4064" />
      <path
         d="m 602.4298,814.65421 -22.35913,24.5188 c -11.77249,-6.94474 -20.24184,-10.41718 -25.40809,-10.41731 -3.98066,1.3e-4 -7.41075,1.52462 -10.29028,4.57345 -2.87963,2.96441 -4.31942,6.52154 -4.31937,10.6714 -5e-5,8.2154 7.45298,15.32966 22.35912,21.3428 10.9254,4.65825 19.18302,8.89292 24.77289,12.70404 5.58968,3.72661 10.24782,8.93526 13.97445,15.62598 3.8111,6.69087 5.71671,13.93216 5.71682,21.72392 -1.1e-4,14.31326 -5.80162,26.76321 -17.40454,37.3499 -11.51842,10.5867 -25.15409,15.88005 -40.90703,15.88005 -17.27754,0 -34.34329,-8.13058 -51.19731,-24.39177 l 23.62953,-27.56777 c 10.58667,10.92551 20.49581,16.38825 29.72747,16.38821 4.31931,4e-5 8.46929,-1.90557 12.44996,-5.71682 3.98053,-3.89586 5.97083,-7.96115 5.9709,-12.19588 -7e-5,-8.72339 -9.18932,-16.38815 -27.56778,-22.99432 -10.50205,-3.81114 -17.95508,-7.36827 -22.35912,-10.6714 -4.40409,-3.38766 -8.13061,-8.25754 -11.17956,-14.60966 -2.96429,-6.43661 -4.44642,-13.00036 -4.44641,-19.69127 -10e-6,-14.82125 4.82752,-26.84774 14.48261,-36.07949 9.65504,-9.23144 22.27438,-13.84724 37.85806,-13.84741 18.46313,1.7e-4 33.96205,5.80168 46.49681,17.40455"
         style="letter-spacing:-11px;fill:#002255;font-family:Tw Cen MT;-inkscape-font-specification:Tw Cen MT Bold"
         id="path4066" />
      <path
         d="m 610.35885,799.53639 112.17673,0 0,35.44429 -38.23918,0 0,131.35984 -35.95245,0 0,-131.35984 -37.9851,0 0,-35.44429"
         style="letter-spacing:-11px;fill:#002255;font-family:Tw Cen MT;-inkscape-font-specification:Tw Cen MT Bold"
         id="path4068" />
      <path
         d="m 735.29213,799.53639 35.44428,0 0,102.01349 c -5e-5,9.48574 2.62545,17.10816 7.87651,22.86728 5.25094,5.75921 12.15347,8.63879 20.7076,8.63875 9.82437,4e-5 17.44679,-2.87954 22.86728,-8.63875 5.42028,-5.84381 8.13048,-14.05909 8.13059,-24.64585 l 0,-100.23492 35.31725,0 0,107.98439 c -1.5e-4,9.48574 -2.45626,19.35254 -7.36835,29.60043 -4.91236,10.16326 -12.49244,17.95506 -22.74024,23.37544 -10.16334,5.4204 -21.55463,8.13059 -34.17388,8.13059 -22.86735,0 -39.59433,-6.35202 -50.18099,-19.05607 -10.58672,-12.78871 -15.88007,-26.21263 -15.88005,-40.27182 l 0,-109.76296"
         style="letter-spacing:-11px;fill:#002255;font-family:Tw Cen MT;-inkscape-font-specification:Tw Cen MT Bold"
         id="path4070" />
      <path
         d="m 888.68247,799.53639 56.91413,0 c 24.30697,1.7e-4 43.87119,7.66493 58.6927,22.99432 14.8212,15.32968 22.2319,35.52909 22.2321,60.5983 -2e-4,25.15407 -7.665,45.31114 -22.9944,60.47126 -15.24492,15.16017 -35.57138,22.74025 -60.97937,22.74025 l -53.86516,0 0,-166.80413 m 36.20653,31.50603 0,103.02982 14.22853,0 c 14.73662,3e-5 26.84779,-4.02291 36.33358,-12.06885 9.48557,-8.04584 14.22841,-21.46977 14.22853,-40.27182 -1.2e-4,-10.92539 -2.28685,-20.58045 -6.86019,-28.96523 -4.57356,-8.46924 -11.222,-14.18605 -19.94535,-17.15046 -8.63883,-3.04884 -16.89645,-4.57332 -24.77289,-4.57346 l -13.21221,0"
         style="letter-spacing:-11px;fill:#002255;font-family:Tw Cen MT;-inkscape-font-specification:Tw Cen MT Bold"
         id="path4072" />
      <path
         d="m 1041.8187,799.53639 35.8254,0 0,166.80413 -35.8254,0 0,-166.80413"
         style="letter-spacing:-11px;fill:#002255;font-family:Tw Cen MT;-inkscape-font-specification:Tw Cen MT Bold"
         id="path4074" />
      <path
         d="m 1094.7201,882.87493 c 0,-24.64574 8.1306,-44.97219 24.3918,-60.97942 16.3458,-16.09163 35.6983,-24.13752 58.0575,-24.13769 24.7304,1.7e-4 45.1839,8.08841 61.3605,24.26473 16.1763,16.09192 24.2646,36.46072 24.2648,61.10646 -2e-4,24.47652 -8.0038,44.80298 -24.0107,60.97942 -16.0072,16.1765 -36.1643,24.26473 -60.4712,24.26473 -24.3072,0 -44.3372,-8.04589 -60.0902,-24.13769 -15.6683,-16.09175 -23.5025,-36.54524 -23.5025,-61.36054 m 84.1008,-51.83251 c -13.9745,-0.25394 -25.2388,4.57359 -33.7927,14.48262 -8.5542,9.90926 -12.8312,22.69799 -12.8311,38.36622 -1e-4,14.82145 4.3616,27.10202 13.0851,36.84173 8.7234,9.7398 19.7336,14.60968 33.0306,14.60965 13.9743,3e-5 25.2385,-4.78515 33.7927,-14.35557 8.6386,-9.65502 12.958,-22.35905 12.9581,-38.11214 -10e-5,-15.49883 -4.2348,-27.94879 -12.704,-37.34989 -8.3848,-9.40087 -19.5643,-14.2284 -33.5387,-14.48262"
         style="letter-spacing:-11px;fill:#002255;font-family:Tw Cen MT;-inkscape-font-specification:Tw Cen MT Bold"
         id="path4076" />
    </g>
    <rect
       inkscape:export-ydpi="90"
       inkscape:export-xdpi="90"
       inkscape:export-filename="/Users/kacyjames/Sites/Dropbox/Design/pike/pike_studio_mbp.png"
       ry="0.79214656"
       y="1040.2429"
       x="61.668938"
       height="12.121832"
       width="1139.452"
       id="rect4189"
       style="fill:#002255;fill-opacity:1;stroke:none" />
  </g>
</svg>
